<mxfile host="65bd71144e">
    <diagram id="kbqpYCO-wnvlzB_48cYy" name="Page-1">
        <mxGraphModel dx="1703" dy="479" grid="1" gridSize="10" guides="1" tooltips="1" connect="1" arrows="1" fold="1" page="1" pageScale="1" pageWidth="850" pageHeight="1100" math="0" shadow="0">
            <root>
                <mxCell id="0"/>
                <mxCell id="1" parent="0"/>
                <mxCell id="2" value="" style="endArrow=classic;html=1;" edge="1" parent="1">
                    <mxGeometry width="50" height="50" relative="1" as="geometry">
                        <mxPoint x="10" y="279.41" as="sourcePoint"/>
                        <mxPoint x="90" y="279.41" as="targetPoint"/>
                    </mxGeometry>
                </mxCell>
                <mxCell id="3" value="0" style="ellipse;whiteSpace=wrap;html=1;aspect=fixed;" vertex="1" parent="1">
                    <mxGeometry x="90" y="250" width="60" height="60" as="geometry"/>
                </mxCell>
                <mxCell id="4" value="" style="endArrow=classic;html=1;" edge="1" parent="1">
                    <mxGeometry width="50" height="50" relative="1" as="geometry">
                        <mxPoint x="150" y="279.41" as="sourcePoint"/>
                        <mxPoint x="220" y="279.41" as="targetPoint"/>
                    </mxGeometry>
                </mxCell>
                <mxCell id="5" value="" style="endArrow=classic;html=1;" edge="1" parent="1">
                    <mxGeometry width="50" height="50" relative="1" as="geometry">
                        <mxPoint x="280" y="279.65999999999997" as="sourcePoint"/>
                        <mxPoint x="350" y="279.65999999999997" as="targetPoint"/>
                    </mxGeometry>
                </mxCell>
                <mxCell id="6" value="1" style="ellipse;whiteSpace=wrap;html=1;aspect=fixed;" vertex="1" parent="1">
                    <mxGeometry x="220" y="250" width="60" height="60" as="geometry"/>
                </mxCell>
                <mxCell id="7" value="2" style="ellipse;whiteSpace=wrap;html=1;aspect=fixed;" vertex="1" parent="1">
                    <mxGeometry x="350" y="250" width="60" height="60" as="geometry"/>
                </mxCell>
                <mxCell id="8" value="&#39;r&#39;" style="text;html=1;align=center;verticalAlign=middle;resizable=0;points=[];autosize=1;strokeColor=none;fillColor=none;" vertex="1" parent="1">
                    <mxGeometry x="165" y="248" width="30" height="30" as="geometry"/>
                </mxCell>
                <mxCell id="9" value="&#39;e&#39;" style="text;html=1;align=center;verticalAlign=middle;resizable=0;points=[];autosize=1;strokeColor=none;fillColor=none;" vertex="1" parent="1">
                    <mxGeometry x="300" y="248" width="30" height="30" as="geometry"/>
                </mxCell>
                <mxCell id="14" value="" style="endArrow=classic;html=1;" edge="1" parent="1">
                    <mxGeometry width="50" height="50" relative="1" as="geometry">
                        <mxPoint x="410" y="279.65999999999997" as="sourcePoint"/>
                        <mxPoint x="480" y="279.65999999999997" as="targetPoint"/>
                    </mxGeometry>
                </mxCell>
                <mxCell id="15" value="3" style="ellipse;whiteSpace=wrap;html=1;aspect=fixed;" vertex="1" parent="1">
                    <mxGeometry x="480" y="250" width="60" height="60" as="geometry"/>
                </mxCell>
                <mxCell id="16" value="&#39;a&#39;" style="text;html=1;align=center;verticalAlign=middle;resizable=0;points=[];autosize=1;strokeColor=none;fillColor=none;" vertex="1" parent="1">
                    <mxGeometry x="430" y="248" width="30" height="30" as="geometry"/>
                </mxCell>
                <mxCell id="17" value="" style="endArrow=classic;html=1;" edge="1" parent="1">
                    <mxGeometry width="50" height="50" relative="1" as="geometry">
                        <mxPoint x="540" y="281.65999999999997" as="sourcePoint"/>
                        <mxPoint x="610" y="281.65999999999997" as="targetPoint"/>
                    </mxGeometry>
                </mxCell>
                <mxCell id="18" value="4" style="ellipse;whiteSpace=wrap;html=1;aspect=fixed;" vertex="1" parent="1">
                    <mxGeometry x="610" y="252" width="60" height="60" as="geometry"/>
                </mxCell>
                <mxCell id="19" value="&#39;d&#39;" style="text;html=1;align=center;verticalAlign=middle;resizable=0;points=[];autosize=1;strokeColor=none;fillColor=none;" vertex="1" parent="1">
                    <mxGeometry x="560" y="250" width="30" height="30" as="geometry"/>
                </mxCell>
                <mxCell id="22" value="" style="endArrow=classic;html=1;" edge="1" parent="1">
                    <mxGeometry width="50" height="50" relative="1" as="geometry">
                        <mxPoint x="670" y="279.99999999999994" as="sourcePoint"/>
                        <mxPoint x="740" y="279.99999999999994" as="targetPoint"/>
                    </mxGeometry>
                </mxCell>
                <mxCell id="23" value="6.7" style="ellipse;shape=doubleEllipse;whiteSpace=wrap;html=1;aspect=fixed;" vertex="1" parent="1">
                    <mxGeometry x="740" y="250" width="60" height="60" as="geometry"/>
                </mxCell>
                <mxCell id="24" value="B" style="text;html=1;align=center;verticalAlign=middle;resizable=0;points=[];autosize=1;strokeColor=none;fillColor=none;" vertex="1" parent="1">
                    <mxGeometry x="690" y="248" width="30" height="30" as="geometry"/>
                </mxCell>
                <mxCell id="25" value="" style="endArrow=classic;html=1;" edge="1" parent="1">
                    <mxGeometry width="50" height="50" relative="1" as="geometry">
                        <mxPoint x="249.57999999999998" y="310" as="sourcePoint"/>
                        <mxPoint x="249.57999999999998" y="360" as="targetPoint"/>
                    </mxGeometry>
                </mxCell>
                <mxCell id="26" value="5" style="ellipse;whiteSpace=wrap;html=1;aspect=fixed;" vertex="1" parent="1">
                    <mxGeometry x="220" y="360" width="60" height="60" as="geometry"/>
                </mxCell>
                <mxCell id="27" value="L, D" style="text;html=1;align=center;verticalAlign=middle;resizable=0;points=[];autosize=1;strokeColor=none;fillColor=none;" vertex="1" parent="1">
                    <mxGeometry x="240" y="312" width="50" height="30" as="geometry"/>
                </mxCell>
                <mxCell id="28" value="" style="endArrow=classic;html=1;" edge="1" parent="1" target="26">
                    <mxGeometry width="50" height="50" relative="1" as="geometry">
                        <mxPoint x="379.58" y="310" as="sourcePoint"/>
                        <mxPoint x="380" y="400" as="targetPoint"/>
                        <Array as="points">
                            <mxPoint x="380" y="390"/>
                        </Array>
                    </mxGeometry>
                </mxCell>
                <mxCell id="29" value="" style="endArrow=classic;html=1;entryX=1;entryY=0.5;entryDx=0;entryDy=0;" edge="1" parent="1" target="26">
                    <mxGeometry width="50" height="50" relative="1" as="geometry">
                        <mxPoint x="509.58" y="310" as="sourcePoint"/>
                        <mxPoint x="510" y="390" as="targetPoint"/>
                        <Array as="points">
                            <mxPoint x="510" y="390"/>
                        </Array>
                    </mxGeometry>
                </mxCell>
                <mxCell id="30" value="" style="endArrow=classic;html=1;" edge="1" parent="1" target="26">
                    <mxGeometry width="50" height="50" relative="1" as="geometry">
                        <mxPoint x="639.5799999999999" y="310" as="sourcePoint"/>
                        <mxPoint x="410" y="390" as="targetPoint"/>
                        <Array as="points">
                            <mxPoint x="640" y="390"/>
                        </Array>
                    </mxGeometry>
                </mxCell>
                <mxCell id="31" value="L, D" style="text;html=1;align=center;verticalAlign=middle;resizable=0;points=[];autosize=1;strokeColor=none;fillColor=none;" vertex="1" parent="1">
                    <mxGeometry x="290" y="360" width="50" height="30" as="geometry"/>
                </mxCell>
                <mxCell id="32" value="L, D" style="text;html=1;align=center;verticalAlign=middle;resizable=0;points=[];autosize=1;strokeColor=none;fillColor=none;" vertex="1" parent="1">
                    <mxGeometry x="420" y="360" width="50" height="30" as="geometry"/>
                </mxCell>
                <mxCell id="33" value="L, D" style="text;html=1;align=center;verticalAlign=middle;resizable=0;points=[];autosize=1;strokeColor=none;fillColor=none;" vertex="1" parent="1">
                    <mxGeometry x="550" y="360" width="50" height="30" as="geometry"/>
                </mxCell>
                <mxCell id="34" value="" style="endArrow=classic;html=1;exitX=0;exitY=0.5;exitDx=0;exitDy=0;" edge="1" parent="1" source="26" target="26">
                    <mxGeometry width="50" height="50" relative="1" as="geometry">
                        <mxPoint x="145" y="410" as="sourcePoint"/>
                        <mxPoint x="140" y="390" as="targetPoint"/>
                        <Array as="points">
                            <mxPoint x="180" y="360"/>
                        </Array>
                    </mxGeometry>
                </mxCell>
                <mxCell id="35" value="L, D" style="text;html=1;align=center;verticalAlign=middle;resizable=0;points=[];autosize=1;strokeColor=none;fillColor=none;" vertex="1" parent="1">
                    <mxGeometry x="130" y="375" width="50" height="30" as="geometry"/>
                </mxCell>
                <mxCell id="90" value="0" style="ellipse;whiteSpace=wrap;html=1;aspect=fixed;" vertex="1" parent="1">
                    <mxGeometry x="40" y="572" width="60" height="60" as="geometry"/>
                </mxCell>
                <mxCell id="91" value="" style="endArrow=classic;html=1;" edge="1" parent="1">
                    <mxGeometry width="50" height="50" relative="1" as="geometry">
                        <mxPoint x="100" y="601.4100000000001" as="sourcePoint"/>
                        <mxPoint x="170" y="601.4100000000001" as="targetPoint"/>
                    </mxGeometry>
                </mxCell>
                <mxCell id="92" value="" style="endArrow=classic;html=1;" edge="1" parent="1">
                    <mxGeometry width="50" height="50" relative="1" as="geometry">
                        <mxPoint x="230" y="601.66" as="sourcePoint"/>
                        <mxPoint x="300" y="601.66" as="targetPoint"/>
                    </mxGeometry>
                </mxCell>
                <mxCell id="93" value="7" style="ellipse;whiteSpace=wrap;html=1;aspect=fixed;" vertex="1" parent="1">
                    <mxGeometry x="170" y="572" width="60" height="60" as="geometry"/>
                </mxCell>
                <mxCell id="94" value="8" style="ellipse;whiteSpace=wrap;html=1;aspect=fixed;" vertex="1" parent="1">
                    <mxGeometry x="300" y="572" width="60" height="60" as="geometry"/>
                </mxCell>
                <mxCell id="95" value="&#39;w&#39;" style="text;html=1;align=center;verticalAlign=middle;resizable=0;points=[];autosize=1;strokeColor=none;fillColor=none;" vertex="1" parent="1">
                    <mxGeometry x="110" y="570" width="40" height="30" as="geometry"/>
                </mxCell>
                <mxCell id="96" value="&#39;r&#39;" style="text;html=1;align=center;verticalAlign=middle;resizable=0;points=[];autosize=1;strokeColor=none;fillColor=none;" vertex="1" parent="1">
                    <mxGeometry x="250" y="570" width="30" height="30" as="geometry"/>
                </mxCell>
                <mxCell id="97" value="" style="endArrow=classic;html=1;" edge="1" parent="1">
                    <mxGeometry width="50" height="50" relative="1" as="geometry">
                        <mxPoint x="360" y="601.66" as="sourcePoint"/>
                        <mxPoint x="430" y="601.66" as="targetPoint"/>
                    </mxGeometry>
                </mxCell>
                <mxCell id="98" value="9" style="ellipse;whiteSpace=wrap;html=1;aspect=fixed;" vertex="1" parent="1">
                    <mxGeometry x="430" y="572" width="60" height="60" as="geometry"/>
                </mxCell>
                <mxCell id="99" value="&#39;i&#39;" style="text;html=1;align=center;verticalAlign=middle;resizable=0;points=[];autosize=1;strokeColor=none;fillColor=none;" vertex="1" parent="1">
                    <mxGeometry x="380" y="570" width="30" height="30" as="geometry"/>
                </mxCell>
                <mxCell id="100" value="" style="endArrow=classic;html=1;" edge="1" parent="1">
                    <mxGeometry width="50" height="50" relative="1" as="geometry">
                        <mxPoint x="490" y="603.66" as="sourcePoint"/>
                        <mxPoint x="560" y="603.66" as="targetPoint"/>
                    </mxGeometry>
                </mxCell>
                <mxCell id="101" value="10" style="ellipse;whiteSpace=wrap;html=1;aspect=fixed;" vertex="1" parent="1">
                    <mxGeometry x="560" y="574" width="60" height="60" as="geometry"/>
                </mxCell>
                <mxCell id="102" value="&#39;t&#39;" style="text;html=1;align=center;verticalAlign=middle;resizable=0;points=[];autosize=1;strokeColor=none;fillColor=none;" vertex="1" parent="1">
                    <mxGeometry x="510" y="572" width="30" height="30" as="geometry"/>
                </mxCell>
                <mxCell id="103" value="" style="endArrow=classic;html=1;" edge="1" parent="1">
                    <mxGeometry width="50" height="50" relative="1" as="geometry">
                        <mxPoint x="620" y="602" as="sourcePoint"/>
                        <mxPoint x="690" y="602" as="targetPoint"/>
                    </mxGeometry>
                </mxCell>
                <mxCell id="105" value="&#39;e&#39;" style="text;html=1;align=center;verticalAlign=middle;resizable=0;points=[];autosize=1;strokeColor=none;fillColor=none;" vertex="1" parent="1">
                    <mxGeometry x="640" y="570" width="30" height="30" as="geometry"/>
                </mxCell>
                <mxCell id="106" value="" style="endArrow=classic;html=1;" edge="1" parent="1">
                    <mxGeometry width="50" height="50" relative="1" as="geometry">
                        <mxPoint x="199.57999999999998" y="632" as="sourcePoint"/>
                        <mxPoint x="199.57999999999998" y="682" as="targetPoint"/>
                    </mxGeometry>
                </mxCell>
                <mxCell id="107" value="5" style="ellipse;whiteSpace=wrap;html=1;aspect=fixed;" vertex="1" parent="1">
                    <mxGeometry x="170" y="682" width="60" height="60" as="geometry"/>
                </mxCell>
                <mxCell id="108" value="L, D" style="text;html=1;align=center;verticalAlign=middle;resizable=0;points=[];autosize=1;strokeColor=none;fillColor=none;" vertex="1" parent="1">
                    <mxGeometry x="190" y="634" width="50" height="30" as="geometry"/>
                </mxCell>
                <mxCell id="109" value="" style="endArrow=classic;html=1;" edge="1" parent="1" target="107">
                    <mxGeometry width="50" height="50" relative="1" as="geometry">
                        <mxPoint x="329.58" y="632" as="sourcePoint"/>
                        <mxPoint x="330" y="722" as="targetPoint"/>
                        <Array as="points">
                            <mxPoint x="330" y="712"/>
                        </Array>
                    </mxGeometry>
                </mxCell>
                <mxCell id="110" value="" style="endArrow=classic;html=1;entryX=1;entryY=0.5;entryDx=0;entryDy=0;" edge="1" parent="1" target="107">
                    <mxGeometry width="50" height="50" relative="1" as="geometry">
                        <mxPoint x="459.5799999999999" y="632" as="sourcePoint"/>
                        <mxPoint x="460" y="712" as="targetPoint"/>
                        <Array as="points">
                            <mxPoint x="460" y="712"/>
                        </Array>
                    </mxGeometry>
                </mxCell>
                <mxCell id="111" value="" style="endArrow=classic;html=1;" edge="1" parent="1" target="107">
                    <mxGeometry width="50" height="50" relative="1" as="geometry">
                        <mxPoint x="589.5799999999999" y="632" as="sourcePoint"/>
                        <mxPoint x="360" y="712" as="targetPoint"/>
                        <Array as="points">
                            <mxPoint x="590" y="712"/>
                        </Array>
                    </mxGeometry>
                </mxCell>
                <mxCell id="112" value="L, D" style="text;html=1;align=center;verticalAlign=middle;resizable=0;points=[];autosize=1;strokeColor=none;fillColor=none;" vertex="1" parent="1">
                    <mxGeometry x="240" y="682" width="50" height="30" as="geometry"/>
                </mxCell>
                <mxCell id="113" value="L, D" style="text;html=1;align=center;verticalAlign=middle;resizable=0;points=[];autosize=1;strokeColor=none;fillColor=none;" vertex="1" parent="1">
                    <mxGeometry x="370" y="682" width="50" height="30" as="geometry"/>
                </mxCell>
                <mxCell id="114" value="L, D" style="text;html=1;align=center;verticalAlign=middle;resizable=0;points=[];autosize=1;strokeColor=none;fillColor=none;" vertex="1" parent="1">
                    <mxGeometry x="500" y="682" width="50" height="30" as="geometry"/>
                </mxCell>
                <mxCell id="115" value="" style="endArrow=classic;html=1;exitX=0;exitY=0.5;exitDx=0;exitDy=0;" edge="1" parent="1" source="107" target="107">
                    <mxGeometry width="50" height="50" relative="1" as="geometry">
                        <mxPoint x="95" y="732" as="sourcePoint"/>
                        <mxPoint x="90" y="712" as="targetPoint"/>
                        <Array as="points">
                            <mxPoint x="130" y="682"/>
                        </Array>
                    </mxGeometry>
                </mxCell>
                <mxCell id="116" value="L, D" style="text;html=1;align=center;verticalAlign=middle;resizable=0;points=[];autosize=1;strokeColor=none;fillColor=none;" vertex="1" parent="1">
                    <mxGeometry x="80" y="697" width="50" height="30" as="geometry"/>
                </mxCell>
                <mxCell id="117" value="10" style="ellipse;whiteSpace=wrap;html=1;aspect=fixed;" vertex="1" parent="1">
                    <mxGeometry x="690" y="572" width="60" height="60" as="geometry"/>
                </mxCell>
                <mxCell id="118" value="6.7" style="ellipse;shape=doubleEllipse;whiteSpace=wrap;html=1;aspect=fixed;" vertex="1" parent="1">
                    <mxGeometry x="820" y="570" width="60" height="60" as="geometry"/>
                </mxCell>
                <mxCell id="119" value="B" style="text;html=1;align=center;verticalAlign=middle;resizable=0;points=[];autosize=1;strokeColor=none;fillColor=none;" vertex="1" parent="1">
                    <mxGeometry x="770" y="570" width="30" height="30" as="geometry"/>
                </mxCell>
                <mxCell id="121" value="" style="endArrow=classic;html=1;" edge="1" parent="1">
                    <mxGeometry width="50" height="50" relative="1" as="geometry">
                        <mxPoint x="750" y="600" as="sourcePoint"/>
                        <mxPoint x="820" y="600" as="targetPoint"/>
                    </mxGeometry>
                </mxCell>
                <mxCell id="122" value="" style="endArrow=classic;html=1;entryX=1;entryY=0.5;entryDx=0;entryDy=0;" edge="1" parent="1" target="107">
                    <mxGeometry width="50" height="50" relative="1" as="geometry">
                        <mxPoint x="719.5799999999999" y="630" as="sourcePoint"/>
                        <mxPoint x="360" y="710" as="targetPoint"/>
                        <Array as="points">
                            <mxPoint x="720" y="710"/>
                        </Array>
                    </mxGeometry>
                </mxCell>
                <mxCell id="123" value="L, D" style="text;html=1;align=center;verticalAlign=middle;resizable=0;points=[];autosize=1;strokeColor=none;fillColor=none;" vertex="1" parent="1">
                    <mxGeometry x="630" y="682" width="50" height="30" as="geometry"/>
                </mxCell>
                <mxCell id="124" value="6.8" style="ellipse;shape=doubleEllipse;whiteSpace=wrap;html=1;aspect=fixed;" vertex="1" parent="1">
                    <mxGeometry x="420" y="450" width="60" height="60" as="geometry"/>
                </mxCell>
                <mxCell id="125" value="" style="endArrow=classic;html=1;entryX=0;entryY=0.5;entryDx=0;entryDy=0;" edge="1" parent="1" source="93" target="124">
                    <mxGeometry width="50" height="50" relative="1" as="geometry">
                        <mxPoint x="230" y="540" as="sourcePoint"/>
                        <mxPoint x="280" y="490" as="targetPoint"/>
                        <Array as="points">
                            <mxPoint x="200" y="480"/>
                        </Array>
                    </mxGeometry>
                </mxCell>
                <mxCell id="126" value="B" style="text;html=1;align=center;verticalAlign=middle;resizable=0;points=[];autosize=1;strokeColor=none;fillColor=none;" vertex="1" parent="1">
                    <mxGeometry x="300" y="440" width="30" height="30" as="geometry"/>
                </mxCell>
                <mxCell id="127" value="" style="endArrow=classic;html=1;" edge="1" parent="1" source="94" target="124">
                    <mxGeometry width="50" height="50" relative="1" as="geometry">
                        <mxPoint x="320" y="590" as="sourcePoint"/>
                        <mxPoint x="550" y="504" as="targetPoint"/>
                        <Array as="points"/>
                    </mxGeometry>
                </mxCell>
                <mxCell id="128" value="B" style="text;html=1;align=center;verticalAlign=middle;resizable=0;points=[];autosize=1;strokeColor=none;fillColor=none;" vertex="1" parent="1">
                    <mxGeometry x="340" y="530" width="30" height="30" as="geometry"/>
                </mxCell>
                <mxCell id="129" value="" style="endArrow=classic;html=1;" edge="1" parent="1" source="98" target="124">
                    <mxGeometry width="50" height="50" relative="1" as="geometry">
                        <mxPoint x="361" y="591" as="sourcePoint"/>
                        <mxPoint x="439" y="511" as="targetPoint"/>
                        <Array as="points"/>
                    </mxGeometry>
                </mxCell>
                <mxCell id="130" value="B" style="text;html=1;align=center;verticalAlign=middle;resizable=0;points=[];autosize=1;strokeColor=none;fillColor=none;" vertex="1" parent="1">
                    <mxGeometry x="460" y="530" width="30" height="30" as="geometry"/>
                </mxCell>
                <mxCell id="132" value="" style="endArrow=classic;html=1;" edge="1" parent="1" source="101" target="124">
                    <mxGeometry width="50" height="50" relative="1" as="geometry">
                        <mxPoint x="540" y="470" as="sourcePoint"/>
                        <mxPoint x="590" y="420" as="targetPoint"/>
                        <Array as="points">
                            <mxPoint x="590" y="480"/>
                        </Array>
                    </mxGeometry>
                </mxCell>
                <mxCell id="133" value="B" style="text;html=1;align=center;verticalAlign=middle;resizable=0;points=[];autosize=1;strokeColor=none;fillColor=none;" vertex="1" parent="1">
                    <mxGeometry x="510" y="450" width="30" height="30" as="geometry"/>
                </mxCell>
                <mxCell id="134" value="" style="endArrow=classic;html=1;" edge="1" parent="1">
                    <mxGeometry width="50" height="50" relative="1" as="geometry">
                        <mxPoint x="-40" y="603.4100000000001" as="sourcePoint"/>
                        <mxPoint x="40" y="603.4100000000001" as="targetPoint"/>
                    </mxGeometry>
                </mxCell>
                <mxCell id="135" value="0" style="ellipse;whiteSpace=wrap;html=1;aspect=fixed;" vertex="1" parent="1">
                    <mxGeometry x="55" y="852" width="60" height="60" as="geometry"/>
                </mxCell>
                <mxCell id="136" value="L" style="text;html=1;align=center;verticalAlign=middle;resizable=0;points=[];autosize=1;strokeColor=none;fillColor=none;" vertex="1" parent="1">
                    <mxGeometry x="140" y="852" width="30" height="30" as="geometry"/>
                </mxCell>
                <mxCell id="137" value="" style="endArrow=classic;html=1;" edge="1" parent="1">
                    <mxGeometry width="50" height="50" relative="1" as="geometry">
                        <mxPoint x="-25" y="883.4100000000001" as="sourcePoint"/>
                        <mxPoint x="55" y="883.4100000000001" as="targetPoint"/>
                    </mxGeometry>
                </mxCell>
                <mxCell id="138" value="5" style="ellipse;whiteSpace=wrap;html=1;aspect=fixed;" vertex="1" parent="1">
                    <mxGeometry x="195" y="852" width="60" height="60" as="geometry"/>
                </mxCell>
                <mxCell id="139" value="" style="endArrow=classic;html=1;" edge="1" parent="1">
                    <mxGeometry width="50" height="50" relative="1" as="geometry">
                        <mxPoint x="115" y="880.0000000000001" as="sourcePoint"/>
                        <mxPoint x="195" y="880.0000000000001" as="targetPoint"/>
                    </mxGeometry>
                </mxCell>
                <mxCell id="140" value="6.8" style="ellipse;shape=doubleEllipse;whiteSpace=wrap;html=1;aspect=fixed;" vertex="1" parent="1">
                    <mxGeometry x="325" y="852" width="60" height="60" as="geometry"/>
                </mxCell>
                <mxCell id="141" value="L, D" style="text;html=1;align=center;verticalAlign=middle;resizable=0;points=[];autosize=1;strokeColor=none;fillColor=none;" vertex="1" parent="1">
                    <mxGeometry x="265" y="852" width="50" height="30" as="geometry"/>
                </mxCell>
                <mxCell id="142" value="" style="endArrow=classic;html=1;" edge="1" parent="1">
                    <mxGeometry width="50" height="50" relative="1" as="geometry">
                        <mxPoint x="255" y="882" as="sourcePoint"/>
                        <mxPoint x="325" y="882" as="targetPoint"/>
                    </mxGeometry>
                </mxCell>
                <mxCell id="143" value="" style="endArrow=classic;html=1;exitX=0;exitY=1;exitDx=0;exitDy=0;entryX=0.723;entryY=0.932;entryDx=0;entryDy=0;entryPerimeter=0;" edge="1" parent="1" source="138" target="138">
                    <mxGeometry width="50" height="50" relative="1" as="geometry">
                        <mxPoint x="239.99999999999997" y="912.0000000000002" as="sourcePoint"/>
                        <mxPoint x="250" y="910" as="targetPoint"/>
                        <Array as="points">
                            <mxPoint x="222" y="950"/>
                        </Array>
                    </mxGeometry>
                </mxCell>
                <mxCell id="144" value="L, D" style="text;html=1;align=center;verticalAlign=middle;resizable=0;points=[];autosize=1;strokeColor=none;fillColor=none;" vertex="1" parent="1">
                    <mxGeometry x="200" y="950" width="50" height="30" as="geometry"/>
                </mxCell>
                <mxCell id="154" value="0" style="ellipse;whiteSpace=wrap;html=1;aspect=fixed;" vertex="1" parent="1">
                    <mxGeometry x="40" y="1120" width="60" height="60" as="geometry"/>
                </mxCell>
                <mxCell id="155" value="D" style="text;html=1;align=center;verticalAlign=middle;resizable=0;points=[];autosize=1;strokeColor=none;fillColor=none;" vertex="1" parent="1">
                    <mxGeometry x="125" y="1120" width="30" height="30" as="geometry"/>
                </mxCell>
                <mxCell id="156" value="" style="endArrow=classic;html=1;" edge="1" parent="1">
                    <mxGeometry width="50" height="50" relative="1" as="geometry">
                        <mxPoint x="-40" y="1149.41" as="sourcePoint"/>
                        <mxPoint x="40" y="1149.41" as="targetPoint"/>
                    </mxGeometry>
                </mxCell>
                <mxCell id="157" value="13" style="ellipse;whiteSpace=wrap;html=1;aspect=fixed;" vertex="1" parent="1">
                    <mxGeometry x="180" y="1120" width="60" height="60" as="geometry"/>
                </mxCell>
                <mxCell id="158" value="" style="endArrow=classic;html=1;" edge="1" parent="1">
                    <mxGeometry width="50" height="50" relative="1" as="geometry">
                        <mxPoint x="100" y="1148" as="sourcePoint"/>
                        <mxPoint x="180" y="1148" as="targetPoint"/>
                    </mxGeometry>
                </mxCell>
                <mxCell id="159" value="6.9" style="ellipse;shape=doubleEllipse;whiteSpace=wrap;html=1;aspect=fixed;" vertex="1" parent="1">
                    <mxGeometry x="310" y="1020" width="60" height="60" as="geometry"/>
                </mxCell>
                <mxCell id="160" value="&#39;-&#39;" style="text;html=1;align=center;verticalAlign=middle;resizable=0;points=[];autosize=1;strokeColor=none;fillColor=none;" vertex="1" parent="1">
                    <mxGeometry x="260" y="1120" width="30" height="30" as="geometry"/>
                </mxCell>
                <mxCell id="161" value="" style="endArrow=classic;html=1;" edge="1" parent="1">
                    <mxGeometry width="50" height="50" relative="1" as="geometry">
                        <mxPoint x="240" y="1150" as="sourcePoint"/>
                        <mxPoint x="310" y="1150" as="targetPoint"/>
                    </mxGeometry>
                </mxCell>
                <mxCell id="162" value="" style="endArrow=classic;html=1;exitX=0;exitY=1;exitDx=0;exitDy=0;entryX=0.723;entryY=0.932;entryDx=0;entryDy=0;entryPerimeter=0;" edge="1" parent="1" source="157" target="157">
                    <mxGeometry width="50" height="50" relative="1" as="geometry">
                        <mxPoint x="224.99999999999997" y="1180.0000000000002" as="sourcePoint"/>
                        <mxPoint x="235" y="1178" as="targetPoint"/>
                        <Array as="points">
                            <mxPoint x="207" y="1218"/>
                        </Array>
                    </mxGeometry>
                </mxCell>
                <mxCell id="163" value="D" style="text;html=1;align=center;verticalAlign=middle;resizable=0;points=[];autosize=1;strokeColor=none;fillColor=none;" vertex="1" parent="1">
                    <mxGeometry x="195" y="1210" width="30" height="30" as="geometry"/>
                </mxCell>
                <mxCell id="164" value="14" style="ellipse;whiteSpace=wrap;html=1;aspect=fixed;" vertex="1" parent="1">
                    <mxGeometry x="310" y="1120" width="60" height="60" as="geometry"/>
                </mxCell>
                <mxCell id="165" value="" style="endArrow=classic;html=1;" edge="1" parent="1" source="164">
                    <mxGeometry width="50" height="50" relative="1" as="geometry">
                        <mxPoint x="530" y="1230" as="sourcePoint"/>
                        <mxPoint x="340" y="1080" as="targetPoint"/>
                    </mxGeometry>
                </mxCell>
                <mxCell id="166" value="&lt;b&gt;B&lt;/b&gt;" style="text;html=1;align=center;verticalAlign=middle;resizable=0;points=[];autosize=1;strokeColor=none;fillColor=none;" vertex="1" parent="1">
                    <mxGeometry x="350" y="1090" width="30" height="30" as="geometry"/>
                </mxCell>
                <mxCell id="167" value="" style="endArrow=classic;html=1;" edge="1" parent="1" source="157">
                    <mxGeometry width="50" height="50" relative="1" as="geometry">
                        <mxPoint x="530" y="1230" as="sourcePoint"/>
                        <mxPoint x="310" y="1050" as="targetPoint"/>
                        <Array as="points">
                            <mxPoint x="210" y="1050"/>
                        </Array>
                    </mxGeometry>
                </mxCell>
                <mxCell id="168" value="&lt;b&gt;B&lt;/b&gt;" style="text;html=1;align=center;verticalAlign=middle;resizable=0;points=[];autosize=1;strokeColor=none;fillColor=none;" vertex="1" parent="1">
                    <mxGeometry x="180" y="1060" width="30" height="30" as="geometry"/>
                </mxCell>
                <mxCell id="170" value="0" style="ellipse;whiteSpace=wrap;html=1;aspect=fixed;" vertex="1" parent="1">
                    <mxGeometry x="50" y="1320" width="60" height="60" as="geometry"/>
                </mxCell>
                <mxCell id="171" value="&#39;.&#39;" style="text;html=1;align=center;verticalAlign=middle;resizable=0;points=[];autosize=1;strokeColor=none;fillColor=none;" vertex="1" parent="1">
                    <mxGeometry x="135" y="1320" width="30" height="30" as="geometry"/>
                </mxCell>
                <mxCell id="172" value="" style="endArrow=classic;html=1;" edge="1" parent="1">
                    <mxGeometry width="50" height="50" relative="1" as="geometry">
                        <mxPoint x="-30" y="1351.41" as="sourcePoint"/>
                        <mxPoint x="50" y="1351.41" as="targetPoint"/>
                    </mxGeometry>
                </mxCell>
                <mxCell id="173" value="14" style="ellipse;whiteSpace=wrap;html=1;aspect=fixed;" vertex="1" parent="1">
                    <mxGeometry x="190" y="1320" width="60" height="60" as="geometry"/>
                </mxCell>
                <mxCell id="174" value="" style="endArrow=classic;html=1;" edge="1" parent="1">
                    <mxGeometry width="50" height="50" relative="1" as="geometry">
                        <mxPoint x="110" y="1348" as="sourcePoint"/>
                        <mxPoint x="190" y="1348" as="targetPoint"/>
                    </mxGeometry>
                </mxCell>
                <mxCell id="175" value="6.9" style="ellipse;shape=doubleEllipse;whiteSpace=wrap;html=1;aspect=fixed;" vertex="1" parent="1">
                    <mxGeometry x="320" y="1320" width="60" height="60" as="geometry"/>
                </mxCell>
                <mxCell id="176" value="B" style="text;html=1;align=center;verticalAlign=middle;resizable=0;points=[];autosize=1;strokeColor=none;fillColor=none;" vertex="1" parent="1">
                    <mxGeometry x="270" y="1320" width="30" height="30" as="geometry"/>
                </mxCell>
                <mxCell id="177" value="" style="endArrow=classic;html=1;" edge="1" parent="1">
                    <mxGeometry width="50" height="50" relative="1" as="geometry">
                        <mxPoint x="250" y="1350" as="sourcePoint"/>
                        <mxPoint x="320" y="1350" as="targetPoint"/>
                    </mxGeometry>
                </mxCell>
                <mxCell id="178" value="" style="endArrow=classic;html=1;exitX=0;exitY=1;exitDx=0;exitDy=0;entryX=0.723;entryY=0.932;entryDx=0;entryDy=0;entryPerimeter=0;" edge="1" parent="1" source="173" target="173">
                    <mxGeometry width="50" height="50" relative="1" as="geometry">
                        <mxPoint x="234.99999999999997" y="1380.0000000000002" as="sourcePoint"/>
                        <mxPoint x="245" y="1378" as="targetPoint"/>
                        <Array as="points">
                            <mxPoint x="217" y="1418"/>
                        </Array>
                    </mxGeometry>
                </mxCell>
                <mxCell id="179" value="D" style="text;html=1;align=center;verticalAlign=middle;resizable=0;points=[];autosize=1;strokeColor=none;fillColor=none;" vertex="1" parent="1">
                    <mxGeometry x="205" y="1418" width="30" height="30" as="geometry"/>
                </mxCell>
                <mxCell id="180" value="0" style="ellipse;whiteSpace=wrap;html=1;aspect=fixed;" vertex="1" parent="1">
                    <mxGeometry x="50" y="1470" width="60" height="60" as="geometry"/>
                </mxCell>
                <mxCell id="181" value="&#39;:&#39;" style="text;html=1;align=center;verticalAlign=middle;resizable=0;points=[];autosize=1;strokeColor=none;fillColor=none;" vertex="1" parent="1">
                    <mxGeometry x="135" y="1470" width="30" height="30" as="geometry"/>
                </mxCell>
                <mxCell id="182" value="" style="endArrow=classic;html=1;" edge="1" parent="1">
                    <mxGeometry width="50" height="50" relative="1" as="geometry">
                        <mxPoint x="-30" y="1501.41" as="sourcePoint"/>
                        <mxPoint x="50" y="1501.41" as="targetPoint"/>
                    </mxGeometry>
                </mxCell>
                <mxCell id="183" value="17" style="ellipse;whiteSpace=wrap;html=1;aspect=fixed;" vertex="1" parent="1">
                    <mxGeometry x="190" y="1470" width="60" height="60" as="geometry"/>
                </mxCell>
                <mxCell id="184" value="" style="endArrow=classic;html=1;" edge="1" parent="1">
                    <mxGeometry width="50" height="50" relative="1" as="geometry">
                        <mxPoint x="110" y="1498" as="sourcePoint"/>
                        <mxPoint x="190" y="1498" as="targetPoint"/>
                    </mxGeometry>
                </mxCell>
                <mxCell id="185" value="6.11" style="ellipse;shape=doubleEllipse;whiteSpace=wrap;html=1;aspect=fixed;" vertex="1" parent="1">
                    <mxGeometry x="320" y="1470" width="60" height="60" as="geometry"/>
                </mxCell>
                <mxCell id="186" value="&#39;=&#39;" style="text;html=1;align=center;verticalAlign=middle;resizable=0;points=[];autosize=1;strokeColor=none;fillColor=none;" vertex="1" parent="1">
                    <mxGeometry x="265" y="1470" width="40" height="30" as="geometry"/>
                </mxCell>
                <mxCell id="187" value="" style="endArrow=classic;html=1;" edge="1" parent="1">
                    <mxGeometry width="50" height="50" relative="1" as="geometry">
                        <mxPoint x="250" y="1500" as="sourcePoint"/>
                        <mxPoint x="320" y="1500" as="targetPoint"/>
                    </mxGeometry>
                </mxCell>
                <mxCell id="191" value="0" style="ellipse;whiteSpace=wrap;html=1;aspect=fixed;" vertex="1" parent="1">
                    <mxGeometry x="45" y="1590" width="60" height="60" as="geometry"/>
                </mxCell>
                <mxCell id="192" value="" style="endArrow=classic;html=1;" edge="1" parent="1">
                    <mxGeometry width="50" height="50" relative="1" as="geometry">
                        <mxPoint x="-35" y="1618" as="sourcePoint"/>
                        <mxPoint x="45" y="1618" as="targetPoint"/>
                    </mxGeometry>
                </mxCell>
                <mxCell id="193" value="6.1" style="ellipse;shape=doubleEllipse;whiteSpace=wrap;html=1;aspect=fixed;" vertex="1" parent="1">
                    <mxGeometry x="175" y="1590" width="60" height="60" as="geometry"/>
                </mxCell>
                <mxCell id="194" value="&#39;+&#39;" style="text;html=1;align=center;verticalAlign=middle;resizable=0;points=[];autosize=1;strokeColor=none;fillColor=none;" vertex="1" parent="1">
                    <mxGeometry x="120" y="1590" width="40" height="30" as="geometry"/>
                </mxCell>
                <mxCell id="195" value="" style="endArrow=classic;html=1;" edge="1" parent="1">
                    <mxGeometry width="50" height="50" relative="1" as="geometry">
                        <mxPoint x="105" y="1620" as="sourcePoint"/>
                        <mxPoint x="175" y="1620" as="targetPoint"/>
                    </mxGeometry>
                </mxCell>
                <mxCell id="196" value="0" style="ellipse;whiteSpace=wrap;html=1;aspect=fixed;" vertex="1" parent="1">
                    <mxGeometry x="45" y="1680" width="60" height="60" as="geometry"/>
                </mxCell>
                <mxCell id="197" value="" style="endArrow=classic;html=1;" edge="1" parent="1">
                    <mxGeometry width="50" height="50" relative="1" as="geometry">
                        <mxPoint x="-35" y="1708" as="sourcePoint"/>
                        <mxPoint x="45" y="1708" as="targetPoint"/>
                    </mxGeometry>
                </mxCell>
                <mxCell id="198" value="6.2" style="ellipse;shape=doubleEllipse;whiteSpace=wrap;html=1;aspect=fixed;" vertex="1" parent="1">
                    <mxGeometry x="175" y="1680" width="60" height="60" as="geometry"/>
                </mxCell>
                <mxCell id="199" value="&#39;-&#39;" style="text;html=1;align=center;verticalAlign=middle;resizable=0;points=[];autosize=1;strokeColor=none;fillColor=none;" vertex="1" parent="1">
                    <mxGeometry x="125" y="1680" width="30" height="30" as="geometry"/>
                </mxCell>
                <mxCell id="200" value="" style="endArrow=classic;html=1;" edge="1" parent="1">
                    <mxGeometry width="50" height="50" relative="1" as="geometry">
                        <mxPoint x="105" y="1710" as="sourcePoint"/>
                        <mxPoint x="175" y="1710" as="targetPoint"/>
                    </mxGeometry>
                </mxCell>
                <mxCell id="201" value="0" style="ellipse;whiteSpace=wrap;html=1;aspect=fixed;" vertex="1" parent="1">
                    <mxGeometry x="45" y="1770" width="60" height="60" as="geometry"/>
                </mxCell>
                <mxCell id="202" value="" style="endArrow=classic;html=1;" edge="1" parent="1">
                    <mxGeometry width="50" height="50" relative="1" as="geometry">
                        <mxPoint x="-35" y="1798" as="sourcePoint"/>
                        <mxPoint x="45" y="1798" as="targetPoint"/>
                    </mxGeometry>
                </mxCell>
                <mxCell id="203" value="6.3" style="ellipse;shape=doubleEllipse;whiteSpace=wrap;html=1;aspect=fixed;" vertex="1" parent="1">
                    <mxGeometry x="175" y="1770" width="60" height="60" as="geometry"/>
                </mxCell>
                <mxCell id="204" value="&#39;*&#39;" style="text;html=1;align=center;verticalAlign=middle;resizable=0;points=[];autosize=1;strokeColor=none;fillColor=none;" vertex="1" parent="1">
                    <mxGeometry x="125" y="1770" width="30" height="30" as="geometry"/>
                </mxCell>
                <mxCell id="205" value="" style="endArrow=classic;html=1;" edge="1" parent="1">
                    <mxGeometry width="50" height="50" relative="1" as="geometry">
                        <mxPoint x="105" y="1800" as="sourcePoint"/>
                        <mxPoint x="175" y="1800" as="targetPoint"/>
                    </mxGeometry>
                </mxCell>
                <mxCell id="206" value="0" style="ellipse;whiteSpace=wrap;html=1;aspect=fixed;" vertex="1" parent="1">
                    <mxGeometry x="45" y="1870" width="60" height="60" as="geometry"/>
                </mxCell>
                <mxCell id="207" value="" style="endArrow=classic;html=1;" edge="1" parent="1">
                    <mxGeometry width="50" height="50" relative="1" as="geometry">
                        <mxPoint x="-35" y="1898" as="sourcePoint"/>
                        <mxPoint x="45" y="1898" as="targetPoint"/>
                    </mxGeometry>
                </mxCell>
                <mxCell id="208" value="6.4" style="ellipse;shape=doubleEllipse;whiteSpace=wrap;html=1;aspect=fixed;" vertex="1" parent="1">
                    <mxGeometry x="175" y="1870" width="60" height="60" as="geometry"/>
                </mxCell>
                <mxCell id="209" value="&#39;/&#39;" style="text;html=1;align=center;verticalAlign=middle;resizable=0;points=[];autosize=1;strokeColor=none;fillColor=none;" vertex="1" parent="1">
                    <mxGeometry x="125" y="1870" width="30" height="30" as="geometry"/>
                </mxCell>
                <mxCell id="210" value="" style="endArrow=classic;html=1;" edge="1" parent="1">
                    <mxGeometry width="50" height="50" relative="1" as="geometry">
                        <mxPoint x="105" y="1900" as="sourcePoint"/>
                        <mxPoint x="175" y="1900" as="targetPoint"/>
                    </mxGeometry>
                </mxCell>
                <mxCell id="211" value="0" style="ellipse;whiteSpace=wrap;html=1;aspect=fixed;" vertex="1" parent="1">
                    <mxGeometry x="50" y="1960" width="60" height="60" as="geometry"/>
                </mxCell>
                <mxCell id="212" value="" style="endArrow=classic;html=1;" edge="1" parent="1">
                    <mxGeometry width="50" height="50" relative="1" as="geometry">
                        <mxPoint x="-30" y="1988" as="sourcePoint"/>
                        <mxPoint x="50" y="1988" as="targetPoint"/>
                    </mxGeometry>
                </mxCell>
                <mxCell id="213" value="6.5" style="ellipse;shape=doubleEllipse;whiteSpace=wrap;html=1;aspect=fixed;" vertex="1" parent="1">
                    <mxGeometry x="180" y="1960" width="60" height="60" as="geometry"/>
                </mxCell>
                <mxCell id="214" value="&#39;/&#39;" style="text;html=1;align=center;verticalAlign=middle;resizable=0;points=[];autosize=1;strokeColor=none;fillColor=none;" vertex="1" parent="1">
                    <mxGeometry x="130" y="1960" width="30" height="30" as="geometry"/>
                </mxCell>
                <mxCell id="215" value="" style="endArrow=classic;html=1;" edge="1" parent="1">
                    <mxGeometry width="50" height="50" relative="1" as="geometry">
                        <mxPoint x="110" y="1990" as="sourcePoint"/>
                        <mxPoint x="180" y="1990" as="targetPoint"/>
                    </mxGeometry>
                </mxCell>
                <mxCell id="216" value="0" style="ellipse;whiteSpace=wrap;html=1;aspect=fixed;" vertex="1" parent="1">
                    <mxGeometry x="50" y="2060" width="60" height="60" as="geometry"/>
                </mxCell>
                <mxCell id="217" value="" style="endArrow=classic;html=1;" edge="1" parent="1">
                    <mxGeometry width="50" height="50" relative="1" as="geometry">
                        <mxPoint x="-30" y="2088" as="sourcePoint"/>
                        <mxPoint x="50" y="2088" as="targetPoint"/>
                    </mxGeometry>
                </mxCell>
                <mxCell id="218" value="6.6" style="ellipse;shape=doubleEllipse;whiteSpace=wrap;html=1;aspect=fixed;" vertex="1" parent="1">
                    <mxGeometry x="180" y="2060" width="60" height="60" as="geometry"/>
                </mxCell>
                <mxCell id="219" value="&#39;)&#39;" style="text;html=1;align=center;verticalAlign=middle;resizable=0;points=[];autosize=1;strokeColor=none;fillColor=none;" vertex="1" parent="1">
                    <mxGeometry x="130" y="2060" width="30" height="30" as="geometry"/>
                </mxCell>
                <mxCell id="220" value="" style="endArrow=classic;html=1;" edge="1" parent="1">
                    <mxGeometry width="50" height="50" relative="1" as="geometry">
                        <mxPoint x="110" y="2090" as="sourcePoint"/>
                        <mxPoint x="180" y="2090" as="targetPoint"/>
                    </mxGeometry>
                </mxCell>
            </root>
        </mxGraphModel>
    </diagram>
</mxfile>